<svg width="26" height="12" viewBox="0 0 26 12" fill="none" xmlns="http://www.w3.org/2000/svg">
<path d="M25.0609 1.19217V10.7061C25.4022 10.4971 25.6006 10.3415 25.9759 9.94984C26.0301 7.40119 25.9759 2.05432 25.9759 2.05432C25.9679 1.97221 25.303 1.30777 25.0609 1.19217Z" fill="white"/>
<path d="M0.939114 1.1846V10.6986C0.597848 10.4896 0.399384 10.334 0.0240518 9.94228C-0.0300647 7.39363 0.0240518 2.04676 0.0240518 2.04676C0.0321151 1.96465 0.696958 1.30021 0.939114 1.1846Z" fill="white"/>
<path d="M5.74127 0.231695V2.06945C5.74127 2.06945 3.75618 3.38537 3.75618 5.98695C3.75618 8.58854 5.74127 9.91959 5.74127 9.91959V11.7498C5.74127 11.7498 1.6235 11.0389 1.6235 5.98695C1.6235 0.935032 5.74127 0.231695 5.74127 0.231695Z" fill="white"/>
<path d="M20.2642 0.231695V2.06945C20.2642 2.06945 22.2493 3.38537 22.2493 5.98695C22.2493 8.58854 20.2642 9.91959 20.2642 9.91959V11.7498C20.2642 11.7498 24.382 11.0389 24.382 5.98695C24.382 0.935032 20.2642 0.231695 20.2642 0.231695Z" fill="white"/>
<path d="M5.74127 9.91959C6.36115 10.8422 8.56813 12.3095 10.538 11.9313L10.5232 10.2978C10.5232 10.2978 6.58255 10.6381 6.58255 5.9416C6.58255 1.60055 10.5232 1.72914 10.5232 1.72914C10.5232 1.72914 10.5232 0.730837 10.538 0.125836C9.80002 -0.0632524 7.26883 -0.0254583 5.74127 2.06945V9.91959Z" fill="white"/>
<path d="M20.2642 9.93146C19.6443 10.8541 17.4226 12.3171 15.4527 11.9388V10.3096C15.4527 10.3096 19.4229 10.6499 19.4229 5.95345C19.4229 1.6124 15.4527 1.72913 15.4527 1.72913C15.4527 1.72913 15.4675 0.693004 15.4527 0.0880029C16.1907 -0.101086 18.7366 -0.013588 20.2642 2.08132V9.93146Z" fill="white"/>
<path d="M10.5158 0.564468V2.73498C11.8441 1.27537 14.0949 1.33587 15.4601 2.73498V0.564468C13.9178 -0.169131 12.25 -0.206943 10.5158 0.564468Z" fill="white"/>
<path d="M15.4675 11.3716V9.20113C14.1392 10.6607 11.8884 10.6002 10.5232 9.20113V11.3716C12.0655 12.1052 13.7333 12.1431 15.4675 11.3716Z" fill="white"/>
</svg>
