<svg width="122" height="140" viewBox="0 0 122 140" fill="none" xmlns="http://www.w3.org/2000/svg">
<path d="M45.3799 70.4192H40.178L42.1375 75.2371L42.1375 75.2372L42.1378 75.2378L42.1379 75.238L42.1405 75.2446L42.1534 75.2765C42.1653 75.3061 42.1837 75.3521 42.2083 75.4137C42.2573 75.5371 42.3307 75.7231 42.4251 75.9661C42.6137 76.4522 42.8857 77.1657 43.2131 78.0611C43.8688 79.8539 44.7433 82.3653 45.6166 85.2341C47.3925 91.068 49.0498 98.0201 49.0498 103.396C49.0498 108.771 47.3925 115.723 45.6166 121.557C44.7433 124.426 43.8688 126.937 43.2131 128.73C42.8857 129.625 42.6137 130.339 42.4251 130.825C42.3307 131.068 42.2573 131.254 42.2083 131.377C42.1837 131.439 42.1653 131.485 42.1534 131.515L42.1405 131.547L42.1379 131.553L42.1378 131.553L42.1375 131.554L42.1375 131.554L40.178 136.372H45.3799H77.2462H82.9179L80.375 131.303L80.3749 131.303L80.3747 131.303L80.3746 131.302L80.3716 131.297L80.3563 131.266C80.3421 131.237 80.3199 131.192 80.2902 131.132C80.2309 131.011 80.1418 130.828 80.0272 130.588C79.798 130.109 79.4671 129.404 79.0685 128.518C78.2703 126.745 77.206 124.259 76.1435 121.413C73.9752 115.605 71.983 108.734 71.983 103.396C71.983 98.0569 73.9752 91.1858 76.1435 85.3781C77.206 82.5323 78.2703 80.0461 79.0685 78.2727C79.4671 77.3872 79.798 76.6825 80.0272 76.2032C80.1418 75.9636 80.2309 75.7805 80.2902 75.6595C80.3199 75.599 80.3421 75.5541 80.3563 75.5254L80.3716 75.4946L80.3746 75.4887L80.3747 75.4885L80.3749 75.488L80.375 75.4878L82.9179 70.4192H77.2462H45.3799Z" fill="#C76026" stroke="white" stroke-width="7"/>
<mask id="path-2-outside-1_1324_757" maskUnits="userSpaceOnUse" x="0.140137" y="39.0364" width="70" height="70" fill="black">
<rect fill="white" x="0.140137" y="39.0364" width="70" height="70"/>
<path d="M62.9062 73.9194C62.9062 89.3188 50.4226 101.802 35.0232 101.802C19.6238 101.802 7.14014 89.3188 7.14014 73.9194C7.14014 58.52 19.6238 46.0364 35.0232 46.0364C50.4226 46.0364 62.9062 58.52 62.9062 73.9194Z"/>
</mask>
<path d="M62.9062 73.9194C62.9062 89.3188 50.4226 101.802 35.0232 101.802C19.6238 101.802 7.14014 89.3188 7.14014 73.9194C7.14014 58.52 19.6238 46.0364 35.0232 46.0364C50.4226 46.0364 62.9062 58.52 62.9062 73.9194Z" fill="#16B83E"/>
<path d="M55.9062 73.9194C55.9062 85.4528 46.5566 94.8025 35.0232 94.8025V108.802C54.2886 108.802 69.9062 93.1848 69.9062 73.9194H55.9062ZM35.0232 94.8025C23.4898 94.8025 14.1401 85.4528 14.1401 73.9194H0.140137C0.140137 93.1848 15.7578 108.802 35.0232 108.802V94.8025ZM14.1401 73.9194C14.1401 62.386 23.4898 53.0364 35.0232 53.0364V39.0364C15.7578 39.0364 0.140137 54.654 0.140137 73.9194H14.1401ZM35.0232 53.0364C46.5566 53.0364 55.9062 62.386 55.9062 73.9194H69.9062C69.9062 54.654 54.2886 39.0364 35.0232 39.0364V53.0364Z" fill="white" mask="url(#path-2-outside-1_1324_757)"/>
<mask id="path-4-outside-2_1324_757" maskUnits="userSpaceOnUse" x="51.0649" y="39.2078" width="70" height="70" fill="black">
<rect fill="white" x="51.0649" y="39.2078" width="70" height="70"/>
<path d="M114.065 74.0908C114.065 89.4902 101.581 101.974 86.1819 101.974C70.7825 101.974 58.2989 89.4902 58.2989 74.0908C58.2989 58.6914 70.7825 46.2078 86.1819 46.2078C101.581 46.2078 114.065 58.6914 114.065 74.0908Z"/>
</mask>
<path d="M114.065 74.0908C114.065 89.4902 101.581 101.974 86.1819 101.974C70.7825 101.974 58.2989 89.4902 58.2989 74.0908C58.2989 58.6914 70.7825 46.2078 86.1819 46.2078C101.581 46.2078 114.065 58.6914 114.065 74.0908Z" fill="#FFE11F"/>
<path d="M107.065 74.0908C107.065 85.6242 97.7153 94.9738 86.1819 94.9738L86.1819 108.974C105.447 108.974 121.065 93.3562 121.065 74.0908L107.065 74.0908ZM86.1819 94.9738C74.6485 94.9738 65.2989 85.6242 65.2989 74.0908L51.2989 74.0908C51.2989 93.3562 66.9165 108.974 86.1819 108.974L86.1819 94.9738ZM65.2989 74.0908C65.2989 62.5574 74.6485 53.2078 86.1819 53.2078L86.1819 39.2078C66.9165 39.2078 51.2989 54.8254 51.2989 74.0908L65.2989 74.0908ZM86.1819 53.2078C97.7153 53.2078 107.065 62.5574 107.065 74.0908L121.065 74.0908C121.065 54.8254 105.447 39.2078 86.1819 39.2078L86.1819 53.2078Z" fill="white" mask="url(#path-4-outside-2_1324_757)"/>
<mask id="path-6-outside-3_1324_757" maskUnits="userSpaceOnUse" x="26.4297" y="0" width="70" height="70" fill="black">
<rect fill="white" x="26.4297" width="70" height="70"/>
<path fill-rule="evenodd" clip-rule="evenodd" d="M61.3127 62.7661C76.7121 62.7661 89.1958 50.2824 89.1958 34.883C89.1958 19.4837 76.7121 7 61.3127 7C45.9134 7 33.4297 19.4837 33.4297 34.883C33.4297 38.8522 34.259 42.6277 35.7539 46.0456C46.8708 46.3317 56.3692 53.1244 60.5819 62.7567C60.8248 62.7629 61.0684 62.7661 61.3127 62.7661Z"/>
</mask>
<path fill-rule="evenodd" clip-rule="evenodd" d="M61.3127 62.7661C76.7121 62.7661 89.1958 50.2824 89.1958 34.883C89.1958 19.4837 76.7121 7 61.3127 7C45.9134 7 33.4297 19.4837 33.4297 34.883C33.4297 38.8522 34.259 42.6277 35.7539 46.0456C46.8708 46.3317 56.3692 53.1244 60.5819 62.7567C60.8248 62.7629 61.0684 62.7661 61.3127 62.7661Z" fill="#1651B8"/>
<path d="M35.7539 46.0456L29.3405 48.8506L31.1241 52.9288L35.5739 53.0433L35.7539 46.0456ZM60.5819 62.7567L54.1685 65.5617L55.9521 69.6399L60.4019 69.7544L60.5819 62.7567ZM82.1958 34.883C82.1958 46.4164 72.8461 55.7661 61.3127 55.7661V69.7661C80.5781 69.7661 96.1958 54.1484 96.1958 34.883H82.1958ZM61.3127 14C72.8461 14 82.1958 23.3497 82.1958 34.883H96.1958C96.1958 15.6177 80.5781 0 61.3127 0V14ZM40.4297 34.883C40.4297 23.3497 49.7793 14 61.3127 14V0C42.0474 0 26.4297 15.6177 26.4297 34.883H40.4297ZM42.1673 43.2407C41.052 40.6905 40.4297 37.8687 40.4297 34.883H26.4297C26.4297 39.8358 27.4661 44.5649 29.3405 48.8506L42.1673 43.2407ZM35.5739 53.0433C43.8845 53.2571 51.0072 58.3334 54.1685 65.5617L66.9954 59.9517C61.7311 47.9153 49.857 39.4062 35.9339 39.048L35.5739 53.0433ZM61.3127 55.7661C61.1284 55.7661 60.9448 55.7637 60.762 55.759L60.4019 69.7544C60.7047 69.7622 61.0083 69.7661 61.3127 69.7661V55.7661Z" fill="white" mask="url(#path-6-outside-3_1324_757)"/>
<path d="M45.3799 73.9192H77.2462C77.2462 73.9192 68.483 91.3864 68.483 103.396C68.483 115.405 77.2462 132.872 77.2462 132.872H45.3799C45.3799 132.872 52.5498 115.242 52.5498 103.396C52.5498 91.5487 45.3799 73.9192 45.3799 73.9192Z" fill="#C76026"/>
<path d="M62.9062 73.9194C62.9062 89.3188 50.4226 101.802 35.0232 101.802C19.6238 101.802 7.14014 89.3188 7.14014 73.9194C7.14014 58.52 19.6238 46.0364 35.0232 46.0364C50.4226 46.0364 62.9062 58.52 62.9062 73.9194Z" fill="#16B83E"/>
<path d="M114.065 74.0908C114.065 89.4902 101.581 101.974 86.1819 101.974C70.7825 101.974 58.2989 89.4902 58.2989 74.0908C58.2989 58.6914 70.7825 46.2078 86.1819 46.2078C101.581 46.2078 114.065 58.6914 114.065 74.0908Z" fill="#FFE11F"/>
<path fill-rule="evenodd" clip-rule="evenodd" d="M61.3127 62.7661C76.7121 62.7661 89.1958 50.2824 89.1958 34.883C89.1958 19.4837 76.7121 7 61.3127 7C45.9134 7 33.4297 19.4837 33.4297 34.883C33.4297 38.8522 34.259 42.6277 35.7539 46.0456C46.8708 46.3317 56.3692 53.1244 60.5819 62.7567C60.8248 62.7629 61.0684 62.7661 61.3127 62.7661Z" fill="#1651B8"/>
</svg>
