<svg width="108" height="126" viewBox="0 0 108 126" fill="none" xmlns="http://www.w3.org/2000/svg">
<path d="M38.3799 66.9192H70.2462C70.2462 66.9192 61.483 84.3864 61.483 96.3955C61.483 108.405 70.2462 125.872 70.2462 125.872H38.3799C38.3799 125.872 45.5498 108.242 45.5498 96.3955C45.5498 84.5487 38.3799 66.9192 38.3799 66.9192Z" fill="#C76026"/>
<path d="M55.9062 66.9194C55.9062 82.3188 43.4226 94.8025 28.0232 94.8025C12.6238 94.8025 0.140137 82.3188 0.140137 66.9194C0.140137 51.52 12.6238 39.0364 28.0232 39.0364C43.4226 39.0364 55.9062 51.52 55.9062 66.9194Z" fill="#16B83E"/>
<path d="M107.065 67.0908C107.065 82.4902 94.5813 94.9738 79.1819 94.9738C63.7825 94.9738 51.2989 82.4902 51.2989 67.0908C51.2989 51.6914 63.7825 39.2078 79.1819 39.2078C94.5813 39.2078 107.065 51.6914 107.065 67.0908Z" fill="#FFE11F"/>
<path fill-rule="evenodd" clip-rule="evenodd" d="M54.3127 55.7661C69.7121 55.7661 82.1958 43.2824 82.1958 27.883C82.1958 12.4837 69.7121 0 54.3127 0C38.9134 0 26.4297 12.4837 26.4297 27.883C26.4297 31.8522 27.259 35.6277 28.7539 39.0456C39.8708 39.3317 49.3692 46.1244 53.5819 55.7567C53.8248 55.7629 54.0684 55.7661 54.3127 55.7661Z" fill="#1651B8"/>
</svg>
