<svg width="287" height="337" viewBox="0 0 287 337" fill="none" xmlns="http://www.w3.org/2000/svg">
<path d="M102.753 178.675H187.836C187.836 178.675 164.438 225.312 164.438 257.377C164.438 289.441 187.836 336.078 187.836 336.078H102.753C102.753 336.078 121.897 289.008 121.897 257.377C121.897 225.745 102.753 178.675 102.753 178.675Z" fill="#C76026"/>
<path d="M149.549 178.675C149.549 219.791 116.217 253.123 75.101 253.123C33.9847 253.123 0.65332 219.791 0.65332 178.675C0.65332 137.559 33.9847 104.227 75.101 104.227C116.217 104.227 149.549 137.559 149.549 178.675Z" fill="#16B83E"/>
<path d="M286.142 179.133C286.142 220.249 252.81 253.58 211.694 253.58C170.578 253.58 137.246 220.249 137.246 179.133C137.246 138.016 170.578 104.685 211.694 104.685C252.81 104.685 286.142 138.016 286.142 179.133Z" fill="#FFE11F"/>
<path fill-rule="evenodd" clip-rule="evenodd" d="M145.294 148.895C186.41 148.895 219.741 115.564 219.741 74.4476C219.741 33.3313 186.41 0 145.294 0C104.178 0 70.8462 33.3313 70.8462 74.4476C70.8462 85.0456 73.0607 95.1264 77.0521 104.252C106.734 105.016 132.094 123.152 143.343 148.87C143.991 148.887 144.641 148.895 145.294 148.895Z" fill="#1651B8"/>
</svg>
