<svg width="26" height="13" viewBox="0 0 26 13" fill="none" xmlns="http://www.w3.org/2000/svg">
<path d="M25.0609 1.69217V11.2061C25.4022 10.9971 25.6006 10.8415 25.9759 10.4498C26.0301 7.90119 25.9759 2.55432 25.9759 2.55432C25.9679 2.47221 25.303 1.80777 25.0609 1.69217Z" fill="black"/>
<path d="M0.939114 1.6846V11.1986C0.597848 10.9896 0.399384 10.834 0.0240518 10.4423C-0.0300647 7.89363 0.0240518 2.54676 0.0240518 2.54676C0.0321151 2.46465 0.696958 1.80021 0.939114 1.6846Z" fill="black"/>
<path d="M5.74127 0.731695V2.56945C5.74127 2.56945 3.75618 3.88537 3.75618 6.48695C3.75618 9.08854 5.74127 10.4196 5.74127 10.4196V12.2498C5.74127 12.2498 1.6235 11.5389 1.6235 6.48695C1.6235 1.43503 5.74127 0.731695 5.74127 0.731695Z" fill="black"/>
<path d="M20.2642 0.731695V2.56945C20.2642 2.56945 22.2493 3.88537 22.2493 6.48695C22.2493 9.08854 20.2642 10.4196 20.2642 10.4196V12.2498C20.2642 12.2498 24.382 11.5389 24.382 6.48695C24.382 1.43503 20.2642 0.731695 20.2642 0.731695Z" fill="black"/>
<path d="M5.74127 10.4196C6.36115 11.3422 8.56813 12.8095 10.538 12.4313L10.5232 10.7978C10.5232 10.7978 6.58255 11.1381 6.58255 6.4416C6.58255 2.10055 10.5232 2.22914 10.5232 2.22914C10.5232 2.22914 10.5232 1.23084 10.538 0.625836C9.80002 0.436748 7.26883 0.474542 5.74127 2.56945V10.4196Z" fill="black"/>
<path d="M20.2642 10.4315C19.6443 11.3541 17.4226 12.8171 15.4527 12.4388V10.8096C15.4527 10.8096 19.4229 11.1499 19.4229 6.45345C19.4229 2.1124 15.4527 2.22913 15.4527 2.22913C15.4527 2.22913 15.4675 1.193 15.4527 0.588003C16.1907 0.398914 18.7366 0.486412 20.2642 2.58132V10.4315Z" fill="black"/>
<path d="M10.5158 1.06447V3.23498C11.8441 1.77537 14.0949 1.83587 15.4601 3.23498V1.06447C13.9178 0.330869 12.25 0.293057 10.5158 1.06447Z" fill="black"/>
<path d="M15.4675 11.8716V9.70113C14.1392 11.1607 11.8884 11.1002 10.5232 9.70113V11.8716C12.0655 12.6052 13.7333 12.643 15.4675 11.8716Z" fill="black"/>
</svg>
