<svg width="35" height="40" viewBox="0 0 35 40" fill="none" xmlns="http://www.w3.org/2000/svg">
<path d="M12.8214 20.7817H22.7173C22.7173 20.7817 19.996 26.2061 19.996 29.9355C19.996 33.6648 22.7173 39.0892 22.7173 39.0892H12.8214C12.8214 39.0892 15.048 33.6144 15.048 29.9355C15.048 26.2565 12.8214 20.7817 12.8214 20.7817Z" fill="#C76026"/>
<path d="M18.2641 20.7815C18.2641 25.5637 14.3874 29.4404 9.60522 29.4404C4.82302 29.4404 0.946289 25.5637 0.946289 20.7815C0.946289 15.9993 4.82302 12.1226 9.60522 12.1226C14.3874 12.1226 18.2641 15.9993 18.2641 20.7815Z" fill="#16B83E"/>
<path d="M34.1511 20.8352C34.1511 25.6174 30.2744 29.4941 25.4922 29.4941C20.71 29.4941 16.8333 25.6174 16.8333 20.8352C16.8333 16.053 20.71 12.1763 25.4922 12.1763C30.2744 12.1763 34.1511 16.053 34.1511 20.8352Z" fill="#FFE11F"/>
<path fill-rule="evenodd" clip-rule="evenodd" d="M17.7693 17.3179C22.5515 17.3179 26.4282 13.4411 26.4282 8.65893C26.4282 3.87673 22.5515 0 17.7693 0C12.9871 0 9.11035 3.87673 9.11035 8.65893C9.11035 9.89156 9.36791 11.064 9.83215 12.1255C13.2844 12.2143 16.2341 14.3237 17.5423 17.3149C17.6178 17.3169 17.6934 17.3179 17.7693 17.3179Z" fill="#1651B8"/>
</svg>
