<svg width="50" height="33" viewBox="0 0 50 33" fill="none" xmlns="http://www.w3.org/2000/svg">
<path d="M46.6667 0H3.33333C1.49238 0 0 1.47746 0 3.3V29.7C0 31.5225 1.49238 33 3.33333 33H46.6667C48.5076 33 50 31.5225 50 29.7V3.3C50 1.47746 48.5076 0 46.6667 0Z" fill="#F0F0F0"/>
<path d="M31.6666 8.25H18.3333C17.4128 8.25 16.6666 8.98873 16.6666 9.9V23.1C16.6666 24.0113 17.4128 24.75 18.3333 24.75H31.6666C32.5871 24.75 33.3333 24.0113 33.3333 23.1V9.9C33.3333 8.98873 32.5871 8.25 31.6666 8.25Z" fill="#009B43"/>
<path d="M32.8534 16.1503L31.6867 14.9953C31.593 14.9025 31.4659 14.8502 31.3334 14.8501H26.6667V10.2301C26.6666 10.0989 26.6138 9.97307 26.52 9.88033L25.3534 8.72533C25.2596 8.63263 25.1325 8.58057 25 8.58057C24.8675 8.58057 24.7405 8.63263 24.6467 8.72533L23.48 9.88033C23.3863 9.97307 23.3335 10.0989 23.3334 10.2301V14.8501H18.6667C18.5342 14.8502 18.4071 14.9025 18.3134 14.9953L17.1467 16.1503C17.0531 16.2431 17.0005 16.369 17.0005 16.5001C17.0005 16.6313 17.0531 16.7571 17.1467 16.8499L18.3134 18.0049C18.4071 18.0978 18.5342 18.15 18.6667 18.1501H23.3334V22.7701C23.3335 22.9014 23.3863 23.0272 23.48 23.1199L24.6467 24.2749C24.7405 24.3676 24.8675 24.4197 25 24.4197C25.1325 24.4197 25.2596 24.3676 25.3534 24.2749L26.52 23.1199C26.6138 23.0272 26.6666 22.9014 26.6667 22.7701V18.1501H31.3334C31.4659 18.15 31.593 18.0978 31.6867 18.0049L32.8534 16.8499C32.947 16.7571 32.9996 16.6313 32.9996 16.5001C32.9996 16.369 32.947 16.2431 32.8534 16.1503Z" fill="#FFCF44"/>
<path d="M28.0383 16.2082C28.0771 16.2465 28.1079 16.292 28.1289 16.3421C28.1499 16.3922 28.1607 16.446 28.1607 16.5002C28.1607 16.5545 28.1499 16.6082 28.1289 16.6583C28.1079 16.7084 28.0771 16.754 28.0383 16.7923L26.6666 18.1502L25.295 19.5082C25.2563 19.5466 25.2103 19.5771 25.1597 19.5979C25.1091 19.6187 25.0548 19.6294 25 19.6294C24.9452 19.6294 24.8909 19.6187 24.8403 19.5979C24.7897 19.5771 24.7437 19.5466 24.705 19.5082L23.3333 18.1502L21.9616 16.7923C21.9228 16.754 21.8921 16.7084 21.8711 16.6583C21.85 16.6082 21.8392 16.5545 21.8392 16.5002C21.8392 16.446 21.85 16.3922 21.8711 16.3421C21.8921 16.292 21.9228 16.2465 21.9616 16.2082L23.3333 14.8502L24.705 13.4923C24.7437 13.4539 24.7897 13.4234 24.8403 13.4026C24.8909 13.3818 24.9452 13.3711 25 13.3711C25.0548 13.3711 25.1091 13.3818 25.1597 13.4026C25.2103 13.4234 25.2563 13.4539 25.295 13.4923L26.6666 14.8502L28.0383 16.2082Z" fill="#009B43"/>
</svg>
